<?xml version="1.0" standalone="no"?>
<!DOCTYPE svg PUBLIC "-//W3C//DTD SVG 20010904//EN"
 "http://www.w3.org/TR/2001/REC-SVG-20010904/DTD/svg10.dtd">
<svg version="1.0" xmlns="http://www.w3.org/2000/svg"
 width="553.000000pt" height="512.000000pt" viewBox="0 0 553.000000 512.000000"
 preserveAspectRatio="xMidYMid meet">

<g transform="translate(0.000000,512.000000) scale(0.100000,-0.100000)"
fill="#000000" stroke="none">
<path d="M2660 5020 l0 -100 -305 0 -305 0 0 -105 0 -105 -205 0 -205 0 0
-100 0 -99 -102 -3 -103 -3 -3 -102 -3 -103 -204 0 -205 0 0 -100 0 -100 -305
0 -305 0 0 -105 0 -105 305 0 305 0 0 -205 0 -205 -100 0 -100 0 0 -100 0
-100 -307 -2 -308 -3 -3 -102 -3 -103 -99 0 -100 0 0 -100 0 -100 410 0 410 0
0 -205 0 -205 100 0 100 0 0 -105 0 -105 -510 0 -510 0 0 -100 0 -100 305 0
304 0 3 -103 3 -102 203 -3 202 -2 0 -100 0 -100 105 0 105 0 0 -515 0 -515
100 0 100 0 0 205 0 205 105 0 105 0 0 105 0 105 205 0 205 0 0 -105 0 -105
305 0 305 0 0 -100 0 -100 205 0 204 0 3 -103 3 -102 103 -3 102 -3 0 -99 0
-100 100 0 100 0 0 205 0 205 105 0 105 0 0 100 0 100 205 0 205 0 0 -100 0
-100 100 0 100 0 0 -410 0 -410 105 0 105 0 0 615 0 615 100 0 100 0 0 100 0
99 103 3 102 3 3 103 3 102 99 0 100 0 0 205 0 205 105 0 105 0 0 100 0 100
100 0 100 0 0 720 0 720 -100 0 -100 0 0 100 0 100 -105 0 -105 0 0 205 0 205
-100 0 -99 0 -3 103 -3 102 -102 3 -103 3 0 99 0 100 -205 0 -205 0 0 105 0
105 -305 0 -305 0 0 100 0 100 -515 0 -515 0 0 -100z m1030 -410 l0 -100 -410
0 -410 0 0 -105 0 -105 -515 0 -516 0 3 103 3 102 308 3 307 2 0 100 0 100
615 0 615 0 0 -100z m818 -617 l3 -103 204 0 205 0 0 -100 0 -100 100 0 100 0
0 -105 0 -105 100 0 100 0 0 -100 0 -100 -2045 0 -2045 0 0 305 0 305 305 0
305 0 0 -205 0 -205 105 0 105 0 0 205 0 205 205 0 205 0 0 105 0 105 1023 -2
1022 -3 3 -102z m-408 -1023 l0 -100 100 0 100 0 0 -105 0 -106 103 3 102 3 3
103 3 102 202 -2 202 -3 3 -202 2 -203 100 0 100 0 0 205 0 205 100 0 100 0 0
-205 0 -205 -100 0 -100 0 0 -105 0 -105 -410 0 -410 0 0 -100 0 -100 -715 0
-715 0 0 100 0 100 -717 2 -718 3 -3 203 -2 202 -100 0 -100 0 0 105 0 105
715 0 715 0 0 -105 0 -105 105 0 105 0 0 105 0 105 410 0 410 0 0 100 0 100
205 0 205 0 0 -100z m-1850 -1230 l0 -100 925 0 925 0 0 100 0 100 305 0 305
0 0 -100 0 -100 -100 0 -99 0 -3 -102 -3 -103 -307 -3 -308 -2 0 -100 0 -100
-205 0 -205 0 0 -105 0 -105 -410 0 -410 0 0 105 0 105 -205 0 -205 0 0 100 0
100 -100 0 -100 0 0 105 0 105 -105 0 -105 0 0 100 0 100 205 0 205 0 0 -100z"/>
<path d="M2667 3684 c-4 -4 -7 -52 -7 -106 l0 -98 105 0 106 0 -3 103 -3 102
-95 3 c-53 1 -99 0 -103 -4z"/>
<path d="M3890 2560 l0 -100 105 0 105 0 0 100 0 100 -105 0 -105 0 0 -100z"/>
<path d="M1027 4914 c-4 -4 -7 -52 -7 -106 l0 -98 105 0 106 0 -3 103 -3 102
-95 3 c-53 1 -99 0 -103 -4z"/>
<path d="M5320 1740 l0 -100 105 0 105 0 0 100 0 100 -105 0 -105 0 0 -100z"/>
</g>
</svg>
